<mxfile
  host="Electron" 
  agent="Mozilla/5.0 (Macintosh; Intel Mac OS X 10_15_7) AppleWebKit/537.36 (KHTML, like Gecko) draw.io/25.0.2 Chrome/128.0.6613.186 Electron/32.2.5 Safari/537.36" 
  version="25.0.2"
  >
  <diagram
    name="web-app-local"
    >
    <mxGraphModel
      grid="1" 
      gridSize="10" 
      guides="1" 
      tooltips="1" 
      connect="1" 
      arrows="1" 
      fold="1" 
      page="1" 
      pageScale="1" 
      pageWidth="1" 
      pageHeight="1" 
      math="0" 
      shadow="0"
      >
      <root>
        <mxCell
          id="page"
          />
        <mxCell
          id="root" 
          parent="page"
          />
        <mxCell
          style="align=center;strokeColor=none;verticalAlign=top;aspect=fixed" 
          id="local" 
          parent="root" 
          value="Web App: local" 
          vertex="1"
          >
          <mxGeometry
            as="geometry" 
            width="480" 
            height="240" 
            x="0" 
            y="0"
            />
          </mxCell>
        <mxCell
          style="shape=mxgraph.aws4.client;fillColor=#000000;verticalLabelPosition=bottom;verticalAlign=top;align=center;aspect=fixed" 
          id="client" 
          parent="local" 
          value="Client" 
          vertex="1"
          >
          <mxGeometry
            as="geometry" 
            width="60" 
            height="60" 
            x="30" 
            y="90"
            />
          </mxCell>
        <mxCell
          style="shape=mxgraph.aws4.group;align=left;spacingLeft=30;verticalAlign=top;aspect=fixed;grIcon=mxgraph.aws4.group_on_premise" 
          id="local_2" 
          parent="local" 
          value="Local" 
          vertex="1"
          >
          <mxGeometry
            as="geometry" 
            width="330" 
            height="180" 
            x="120" 
            y="30"
            />
          </mxCell>
        <mxCell
          style="align=center;spacingLeft=5;spacingRight=5;spacingBottom=5;verticalAlign=top;aspect=fixed" 
          id="deno" 
          parent="local_2" 
          value="Deno" 
          vertex="1"
          >
          <mxGeometry
            as="geometry" 
            width="120" 
            height="120" 
            x="30" 
            y="30"
            />
          </mxCell>
        <mxCell
          style="shape=image;fillColor=#000000;verticalLabelPosition=bottom;verticalAlign=top;align=center;aspect=fixed;image=https://vite.dev/logo.svg" 
          id="vite_dev_vitedev" 
          parent="deno" 
          value="Vite Dev" 
          vertex="1"
          >
          <mxGeometry
            as="geometry" 
            width="60" 
            height="60" 
            x="30" 
            y="30"
            />
          </mxCell>
        <mxCell
          style="align=center;spacingLeft=5;spacingRight=5;spacingBottom=5;verticalAlign=top;aspect=fixed" 
          id="docker" 
          parent="local_2" 
          value="Docker" 
          vertex="1"
          >
          <mxGeometry
            as="geometry" 
            width="120" 
            height="120" 
            x="180" 
            y="30"
            />
          </mxCell>
        <mxCell
          style="shape=mxgraph.aws4.rds_postgresql_instance;fillColor=#C925D1;verticalLabelPosition=bottom;verticalAlign=top;align=center;aspect=fixed;strokeColor=#C925D1;fontColor=#C925D1" 
          id="rds_postgresql_instance_postgres" 
          parent="docker" 
          value="Postgres" 
          vertex="1"
          >
          <mxGeometry
            as="geometry" 
            width="60" 
            height="60" 
            x="30" 
            y="30"
            />
          </mxCell>
        <mxCell
          id="dependency" 
          source="vite_dev_vitedev" 
          target="rds_postgresql_instance_postgres" 
          parent="root" 
          edge="1" 
          style="edgeStyle=orthogonalEdgeStyle;rounded=1;orthogonalLoop=1;jettySize=auto;html=1;startArrow=none;startFill=0;endArrow=block;endFill=1"
          >
          <mxGeometry
            relative="1" 
            as="geometry"
            >
            <Array
              as="points"
              >
              <mxPoint
                x="285" 
                y="120"
                />
              <mxPoint
                x="285" 
                y="120"
                />
              </Array>
            </mxGeometry>
          </mxCell>
        <mxCell
          id="dependency_2" 
          source="client" 
          target="vite_dev_vitedev" 
          parent="root" 
          edge="1" 
          style="edgeStyle=orthogonalEdgeStyle;rounded=1;orthogonalLoop=1;jettySize=auto;html=1;startArrow=none;startFill=0;endArrow=block;endFill=1"
          >
          <mxGeometry
            relative="1" 
            as="geometry"
            >
            <Array
              as="points"
              >
              <mxPoint
                x="135" 
                y="120"
                />
              <mxPoint
                x="135" 
                y="120"
                />
              </Array>
            </mxGeometry>
          </mxCell>
        </root>
      </mxGraphModel>
    </diagram>
  </mxfile>